<svg width="11" height="12" viewBox="0 0 11 12" fill="none" xmlns="http://www.w3.org/2000/svg">
<path d="M1.90144 12C1.6561 12 1.44277 11.9093 1.26144 11.728C1.0801 11.5467 0.989438 11.3333 0.989438 11.088V1.232C0.989438 0.986666 1.0801 0.773333 1.26144 0.591999C1.44277 0.410666 1.6561 0.32 1.90144 0.32H2.81344C3.05877 0.32 3.26677 0.410666 3.43744 0.591999C3.61877 0.773333 3.70944 0.986666 3.70944 1.232V4.752C3.70944 4.848 3.75744 4.896 3.85344 4.896H7.14944C7.24544 4.896 7.29344 4.848 7.29344 4.752V1.232C7.29344 0.986666 7.37877 0.773333 7.54944 0.591999C7.73077 0.410666 7.9441 0.32 8.18944 0.32H9.10144C9.34677 0.32 9.5601 0.410666 9.74144 0.591999C9.92277 0.773333 10.0134 0.986666 10.0134 1.232V11.088C10.0134 11.3333 9.92277 11.5467 9.74144 11.728C9.5601 11.9093 9.34677 12 9.10144 12H8.18944C7.9441 12 7.73077 11.9093 7.54944 11.728C7.37877 11.5467 7.29344 11.3333 7.29344 11.088V7.088C7.29344 7.00267 7.24544 6.96 7.14944 6.96H3.85344C3.75744 6.96 3.70944 7.00267 3.70944 7.088V11.088C3.70944 11.3333 3.61877 11.5467 3.43744 11.728C3.26677 11.9093 3.05877 12 2.81344 12H1.90144Z" fill="url(#paint0_linear_5_3)"/>
<defs>
<linearGradient id="paint0_linear_5_3" x1="-4.5" y1="14" x2="19.5" y2="7.5" gradientUnits="userSpaceOnUse">
<stop offset="0.163642" stop-color="#04F93A" stop-opacity="0.74"/>
<stop offset="0.388592" stop-color="#0D9985" stop-opacity="0.843601"/>
<stop offset="0.686593" stop-color="#1B08F5"/>
</linearGradient>
</defs>
</svg>
