<svg width="63" height="18" viewBox="0 0 63 18" fill="none" xmlns="http://www.w3.org/2000/svg">
<path d="M12.476 15C12.292 15 12.132 14.932 11.996 14.796C11.86 14.66 11.792 14.5 11.792 14.316V9.444C11.792 9.26 11.86 9.1 11.996 8.964C12.132 8.828 12.292 8.76 12.476 8.76H12.92C13.112 8.76 13.272 8.828 13.4 8.964C13.536 9.092 13.612 9.252 13.628 9.444L13.64 9.552C13.64 9.56 13.644 9.564 13.652 9.564C13.668 9.564 13.676 9.56 13.676 9.552C14.148 8.944 14.688 8.64 15.296 8.64C15.664 8.64 15.956 8.708 16.172 8.844C16.388 8.972 16.588 9.204 16.772 9.54C16.772 9.556 16.78 9.564 16.796 9.564L16.82 9.54C17.372 8.94 17.948 8.64 18.548 8.64C19.228 8.64 19.72 8.824 20.024 9.192C20.328 9.552 20.48 10.168 20.48 11.04V14.316C20.48 14.5 20.412 14.66 20.276 14.796C20.14 14.932 19.98 15 19.796 15H19.268C19.084 15 18.924 14.932 18.788 14.796C18.652 14.66 18.584 14.5 18.584 14.316V11.16C18.584 10.728 18.536 10.444 18.44 10.308C18.344 10.164 18.164 10.092 17.9 10.092C17.716 10.092 17.536 10.168 17.36 10.32C17.192 10.472 17.108 10.62 17.108 10.764V14.316C17.108 14.5 17.04 14.66 16.904 14.796C16.768 14.932 16.608 15 16.424 15H15.896C15.712 15 15.552 14.932 15.416 14.796C15.28 14.66 15.212 14.5 15.212 14.316V11.16C15.212 10.728 15.164 10.444 15.068 10.308C14.98 10.164 14.804 10.092 14.54 10.092C14.356 10.092 14.176 10.168 14 10.32C13.824 10.472 13.736 10.62 13.736 10.764V14.316C13.736 14.5 13.668 14.66 13.532 14.796C13.396 14.932 13.236 15 13.052 15H12.476ZM24.939 12.144C23.963 12.144 23.475 12.444 23.475 13.044C23.475 13.26 23.539 13.432 23.667 13.56C23.795 13.68 23.967 13.74 24.183 13.74C24.567 13.74 24.879 13.62 25.119 13.38C25.359 13.132 25.479 12.804 25.479 12.396V12.252C25.479 12.18 25.443 12.144 25.371 12.144H24.939ZM23.595 15.12C23.043 15.12 22.587 14.944 22.227 14.592C21.875 14.232 21.699 13.768 21.699 13.2C21.699 11.744 22.779 11.016 24.939 11.016H25.371C25.443 11.016 25.479 10.984 25.479 10.92V10.86C25.479 10.556 25.399 10.336 25.239 10.2C25.087 10.064 24.827 9.996 24.459 9.996C23.971 9.996 23.387 10.072 22.707 10.224C22.539 10.256 22.387 10.22 22.251 10.116C22.123 10.012 22.059 9.876 22.059 9.708V9.684C22.059 9.484 22.119 9.304 22.239 9.144C22.367 8.976 22.527 8.876 22.719 8.844C23.423 8.708 24.031 8.64 24.543 8.64C25.591 8.64 26.331 8.828 26.763 9.204C27.203 9.58 27.423 10.204 27.423 11.076V14.316C27.423 14.5 27.355 14.66 27.219 14.796C27.083 14.932 26.923 15 26.739 15H26.295C26.103 15 25.939 14.936 25.803 14.808C25.667 14.672 25.595 14.508 25.587 14.316V14.184C25.587 14.176 25.583 14.172 25.575 14.172C25.559 14.172 25.551 14.176 25.551 14.184C25.047 14.808 24.395 15.12 23.595 15.12ZM29.6203 15C29.4363 15 29.2763 14.932 29.1403 14.796C29.0123 14.66 28.9482 14.5 28.9482 14.316V9.444C28.9482 9.26 29.0123 9.1 29.1403 8.964C29.2763 8.828 29.4363 8.76 29.6203 8.76H30.1123C30.3043 8.76 30.4643 8.828 30.5923 8.964C30.7283 9.092 30.8003 9.252 30.8083 9.444L30.8203 9.54C30.8203 9.548 30.8243 9.552 30.8323 9.552L30.8563 9.528C31.3763 8.936 32.0003 8.64 32.7283 8.64C33.4563 8.64 33.9803 8.848 34.3003 9.264C34.6203 9.672 34.7803 10.372 34.7803 11.364V14.316C34.7803 14.5 34.7123 14.66 34.5763 14.796C34.4483 14.932 34.2923 15 34.1083 15H33.5803C33.3963 15 33.2363 14.932 33.1003 14.796C32.9643 14.66 32.8963 14.5 32.8963 14.316V11.424C32.8963 10.944 32.8323 10.616 32.7043 10.44C32.5763 10.256 32.3443 10.164 32.0083 10.164C31.7283 10.164 31.4683 10.28 31.2283 10.512C30.9963 10.736 30.8803 10.98 30.8803 11.244V14.316C30.8803 14.5 30.8123 14.66 30.6763 14.796C30.5483 14.932 30.3923 15 30.2083 15H29.6203ZM39.2476 12.144C38.2716 12.144 37.7836 12.444 37.7836 13.044C37.7836 13.26 37.8476 13.432 37.9756 13.56C38.1036 13.68 38.2756 13.74 38.4916 13.74C38.8756 13.74 39.1876 13.62 39.4276 13.38C39.6676 13.132 39.7876 12.804 39.7876 12.396V12.252C39.7876 12.18 39.7516 12.144 39.6796 12.144H39.2476ZM37.9036 15.12C37.3516 15.12 36.8956 14.944 36.5356 14.592C36.1836 14.232 36.0076 13.768 36.0076 13.2C36.0076 11.744 37.0876 11.016 39.2476 11.016H39.6796C39.7516 11.016 39.7876 10.984 39.7876 10.92V10.86C39.7876 10.556 39.7076 10.336 39.5476 10.2C39.3956 10.064 39.1356 9.996 38.7676 9.996C38.2796 9.996 37.6956 10.072 37.0156 10.224C36.8476 10.256 36.6956 10.22 36.5596 10.116C36.4316 10.012 36.3676 9.876 36.3676 9.708V9.684C36.3676 9.484 36.4276 9.304 36.5476 9.144C36.6756 8.976 36.8356 8.876 37.0276 8.844C37.7316 8.708 38.3396 8.64 38.8516 8.64C39.8996 8.64 40.6396 8.828 41.0716 9.204C41.5116 9.58 41.7316 10.204 41.7316 11.076V14.316C41.7316 14.5 41.6636 14.66 41.5276 14.796C41.3916 14.932 41.2316 15 41.0476 15H40.6036C40.4116 15 40.2476 14.936 40.1116 14.808C39.9756 14.672 39.9036 14.508 39.8956 14.316V14.184C39.8956 14.176 39.8916 14.172 39.8836 14.172C39.8676 14.172 39.8596 14.176 39.8596 14.184C39.3556 14.808 38.7036 15.12 37.9036 15.12ZM45.9328 10.08C45.1728 10.08 44.7928 10.64 44.7928 11.76C44.7928 12.32 44.8928 12.74 45.0928 13.02C45.3008 13.3 45.5808 13.44 45.9328 13.44C46.2448 13.44 46.5128 13.336 46.7368 13.128C46.9608 12.912 47.0728 12.664 47.0728 12.384V11.22C47.0728 10.9 46.9608 10.632 46.7368 10.416C46.5128 10.192 46.2448 10.08 45.9328 10.08ZM45.2968 14.88C44.6008 14.88 44.0248 14.604 43.5688 14.052C43.1208 13.492 42.8968 12.728 42.8968 11.76C42.8968 10.768 43.1128 10 43.5448 9.456C43.9768 8.912 44.5608 8.64 45.2968 8.64C46.0008 8.64 46.6048 8.936 47.1088 9.528L47.1328 9.552C47.1408 9.552 47.1448 9.548 47.1448 9.54V9.444C47.1528 9.252 47.2248 9.092 47.3608 8.964C47.4968 8.828 47.6608 8.76 47.8528 8.76H48.2968C48.4808 8.76 48.6408 8.828 48.7768 8.964C48.9128 9.1 48.9808 9.26 48.9808 9.444V14.46C48.9808 15.54 48.6808 16.36 48.0808 16.92C47.4888 17.48 46.6288 17.76 45.5008 17.76C45.0208 17.76 44.5888 17.728 44.2048 17.664C44.0128 17.632 43.8528 17.536 43.7248 17.376C43.5968 17.216 43.5328 17.036 43.5328 16.836V16.596C43.5328 16.436 43.6008 16.308 43.7368 16.212C43.8728 16.116 44.0208 16.088 44.1808 16.128C44.6128 16.232 45.0248 16.284 45.4168 16.284C45.9928 16.284 46.4128 16.144 46.6768 15.864C46.9408 15.592 47.0728 15.132 47.0728 14.484V14.148C47.0728 14.14 47.0688 14.136 47.0608 14.136C47.0528 14.136 47.0448 14.14 47.0368 14.148C46.5808 14.636 46.0008 14.88 45.2968 14.88ZM53.2453 9.948C52.8853 9.948 52.6133 10.044 52.4293 10.236C52.2453 10.42 52.1293 10.74 52.0813 11.196C52.0813 11.26 52.1093 11.292 52.1653 11.292H54.1933C54.2653 11.292 54.3013 11.256 54.3013 11.184C54.2693 10.36 53.9173 9.948 53.2453 9.948ZM53.5453 15.12C52.4573 15.12 51.6173 14.844 51.0253 14.292C50.4413 13.74 50.1493 12.936 50.1493 11.88C50.1493 10.832 50.4093 10.032 50.9293 9.48C51.4573 8.92 52.2173 8.64 53.2093 8.64C55.1133 8.64 56.0813 9.68 56.1133 11.76C56.1133 11.952 56.0373 12.116 55.8853 12.252C55.7413 12.38 55.5733 12.444 55.3813 12.444H52.1773C52.0973 12.444 52.0653 12.48 52.0813 12.552C52.1453 12.992 52.3133 13.308 52.5853 13.5C52.8653 13.684 53.2813 13.776 53.8333 13.776C54.1933 13.776 54.5813 13.724 54.9973 13.62C55.1653 13.58 55.3133 13.612 55.4413 13.716C55.5773 13.82 55.6453 13.956 55.6453 14.124V14.148C55.6453 14.348 55.5813 14.532 55.4533 14.7C55.3333 14.86 55.1773 14.956 54.9853 14.988C54.5213 15.076 54.0413 15.12 53.5453 15.12ZM58.0148 15C57.8308 15 57.6708 14.932 57.5348 14.796C57.4068 14.66 57.3428 14.5 57.3428 14.316V9.444C57.3428 9.26 57.4068 9.1 57.5348 8.964C57.6708 8.828 57.8308 8.76 58.0148 8.76H58.6028C58.7868 8.76 58.9428 8.828 59.0708 8.964C59.2068 9.1 59.2748 9.26 59.2748 9.444V9.948C59.2748 9.956 59.2788 9.96 59.2868 9.96C59.3028 9.96 59.3108 9.956 59.3108 9.948C59.8068 9.284 60.4988 8.896 61.3868 8.784C61.5708 8.76 61.7268 8.816 61.8548 8.952C61.9908 9.088 62.0588 9.252 62.0588 9.444V9.54C62.0588 9.724 61.9908 9.884 61.8548 10.02C61.7268 10.156 61.5668 10.232 61.3748 10.248C60.7268 10.32 60.2228 10.544 59.8628 10.92C59.5108 11.288 59.3348 11.768 59.3348 12.36V14.316C59.3348 14.5 59.2668 14.66 59.1308 14.796C59.0028 14.932 58.8468 15 58.6628 15H58.0148Z" fill="#3757FB"/>
<path d="M1.90144 15C1.6561 15 1.44277 14.9093 1.26144 14.728C1.0801 14.5467 0.989438 14.3333 0.989438 14.088V4.232C0.989438 3.98667 1.0801 3.77333 1.26144 3.592C1.44277 3.41067 1.6561 3.32 1.90144 3.32H2.81344C3.05877 3.32 3.26677 3.41067 3.43744 3.592C3.61877 3.77333 3.70944 3.98667 3.70944 4.232V7.752C3.70944 7.848 3.75744 7.896 3.85344 7.896H7.14944C7.24544 7.896 7.29344 7.848 7.29344 7.752V4.232C7.29344 3.98667 7.37877 3.77333 7.54944 3.592C7.73077 3.41067 7.9441 3.32 8.18944 3.32H9.10144C9.34677 3.32 9.5601 3.41067 9.74144 3.592C9.92277 3.77333 10.0134 3.98667 10.0134 4.232V14.088C10.0134 14.3333 9.92277 14.5467 9.74144 14.728C9.5601 14.9093 9.34677 15 9.10144 15H8.18944C7.9441 15 7.73077 14.9093 7.54944 14.728C7.37877 14.5467 7.29344 14.3333 7.29344 14.088V10.088C7.29344 10.0027 7.24544 9.96 7.14944 9.96H3.85344C3.75744 9.96 3.70944 10.0027 3.70944 10.088V14.088C3.70944 14.3333 3.61877 14.5467 3.43744 14.728C3.26677 14.9093 3.05877 15 2.81344 15H1.90144Z" fill="url(#paint0_linear_7_2)"/>
<defs>
<linearGradient id="paint0_linear_7_2" x1="-4.5" y1="17" x2="19.5" y2="10.5" gradientUnits="userSpaceOnUse">
<stop offset="0.163642" stop-color="#04F93A" stop-opacity="0.74"/>
<stop offset="0.388592" stop-color="#0D9985" stop-opacity="0.843601"/>
<stop offset="0.686593" stop-color="#1B08F5"/>
</linearGradient>
</defs>
</svg>
